<?xml version="1.0" standalone="no"?>
<!DOCTYPE svg PUBLIC "-//W3C//DTD SVG 20010904//EN"
 "http://www.w3.org/TR/2001/REC-SVG-20010904/DTD/svg10.dtd">
<svg version="1.0" xmlns="http://www.w3.org/2000/svg"
 width="256.000000pt" height="256.000000pt" viewBox="0 0 256.000000 256.000000"
 preserveAspectRatio="xMidYMid meet">
<metadata>
Created by potrace 1.14, written by Peter Selinger 2001-2017
</metadata>
<g transform="translate(0.000000,256.000000) scale(0.100000,-0.100000)"
fill="#000000" stroke="none">
<path d="M1025 2160 c-29 -11 -46 -34 -49 -67 -4 -33 16 -78 39 -86 12 -5 15
-24 15 -87 0 -44 -3 -80 -7 -81 -25 -3 -130 -4 -139 -1 -7 2 -11 21 -9 48 2
29 -3 50 -12 60 -30 30 -51 8 -55 -61 -2 -28 -7 -50 -13 -50 -32 -2 -55 -20
-66 -50 -12 -32 -16 -34 -62 -37 -34 -2 -53 -9 -61 -20 -16 -26 4 -39 62 -41
59 -1 58 -1 54 -93 l-4 -63 -50 -3 c-35 -2 -54 -8 -62 -20 -16 -27 5 -41 63
-41 57 0 59 -4 53 -103 l-4 -51 -79 -1 c-62 -1 -81 2 -86 14 -3 8 -19 22 -35
30 -38 20 -82 10 -108 -23 -29 -38 -26 -79 10 -115 27 -26 35 -29 67 -23 21 4
46 17 58 30 17 20 30 23 96 23 l77 1 3 -37 c2 -20 2 -55 -1 -77 l-5 -40 -50
-3 c-57 -3 -70 -12 -60 -41 5 -18 14 -21 60 -21 l53 0 4 -47 c1 -27 2 -62 0
-79 -3 -29 -5 -30 -54 -31 -58 -2 -78 -15 -62 -41 8 -11 27 -18 61 -20 46 -3
50 -5 62 -37 9 -25 21 -37 46 -46 32 -12 34 -16 37 -62 2 -34 9 -53 20 -61 26
-16 40 5 41 63 l2 51 77 0 78 0 0 -80 c0 -68 -3 -81 -19 -90 -11 -5 -25 -25
-31 -44 -9 -28 -8 -40 5 -65 30 -59 89 -68 137 -21 26 27 30 36 25 67 -4 20
-17 47 -31 60 -22 20 -24 30 -23 95 l2 73 35 5 c19 3 54 3 77 2 40 -4 42 -5
41 -35 -1 -59 2 -75 17 -81 33 -12 45 4 45 60 l0 54 79 0 78 0 0 -76 c-1 -70
-3 -79 -29 -104 -38 -38 -38 -82 1 -121 46 -46 112 -34 136 25 17 40 5 90 -26
107 -16 8 -19 21 -19 89 l0 80 78 0 77 0 1 -50 c1 -58 15 -80 42 -64 12 8 18
27 20 63 2 40 7 51 20 51 26 1 51 24 63 59 10 29 14 31 59 31 51 0 75 16 64
44 -6 16 -20 19 -81 18 -18 0 -33 5 -34 12 -1 16 -1 118 0 134 1 8 18 12 50
12 52 0 76 16 65 44 -6 17 -19 20 -72 17 -38 -2 -45 9 -44 77 0 89 -7 82 82
82 63 0 82 -3 87 -15 3 -9 19 -23 35 -31 85 -44 167 60 105 132 -34 40 -88 41
-127 3 -26 -27 -34 -29 -104 -29 -42 0 -76 3 -77 8 -1 10 -1 114 0 133 1 12
13 16 51 16 60 0 77 12 61 42 -10 17 -21 21 -64 21 l-52 0 2 72 c1 40 2 75 2
78 1 3 24 6 53 7 59 2 78 15 62 41 -7 11 -29 19 -64 22 -42 4 -54 9 -56 23 -4
26 -31 54 -60 61 -21 6 -24 12 -24 56 0 40 -4 51 -21 61 -29 15 -43 -1 -44
-53 0 -24 -3 -48 -7 -53 -3 -6 -37 -10 -75 -10 l-68 1 -3 82 c-2 68 0 83 13
88 17 7 41 51 40 74 -5 85 -103 119 -155 53 -28 -36 -26 -78 7 -111 25 -24 28
-34 29 -104 1 -52 -2 -78 -10 -79 -6 -1 -40 -2 -76 -2 l-65 -2 -3 57 c-3 57
-15 74 -47 62 -14 -6 -20 -42 -15 -88 3 -27 -10 -31 -87 -30 l-68 1 -1 78 c-1
75 1 81 27 108 39 38 38 79 0 118 -30 29 -58 35 -96 19z m-165 -425 c10 -12
10 -18 0 -30 -7 -8 -18 -15 -25 -15 -7 0 -18 7 -25 15 -10 12 -10 18 0 30 7 8
18 15 25 15 7 0 18 -7 25 -15z m888 3 c15 -15 -3 -48 -27 -48 -21 0 -33 22
-25 45 7 18 35 20 52 3z m-624 -84 c14 -36 -4 -45 -83 -42 -69 3 -76 5 -79 24
-2 16 4 24 22 30 39 13 134 5 140 -12z m468 4 c4 -7 7 -20 5 -28 -2 -13 -33
-15 -194 -18 -181 -2 -193 -1 -202 17 -12 21 0 36 33 42 11 2 93 3 184 2 121
-2 168 -6 174 -15z m-234 -215 c3 -22 -94 -330 -109 -347 -15 -16 -39 -15 -48
2 -6 12 10 71 50 192 32 96 59 176 59 178 0 2 10 2 23 0 14 -2 23 -11 25 -25z
m-231 -36 c18 -12 4 -42 -42 -87 l-44 -43 49 -50 c40 -41 47 -53 39 -69 -5
-10 -17 -18 -27 -18 -15 0 -116 95 -136 129 -6 9 12 34 59 81 65 66 77 72 102
57z m404 -53 c46 -46 65 -72 61 -83 -9 -26 -118 -131 -135 -131 -9 0 -21 8
-26 18 -8 15 -1 27 35 65 24 26 44 51 44 55 0 4 -16 24 -36 43 -50 48 -57 64
-38 83 8 9 18 16 22 16 4 0 37 -30 73 -66z m-582 -168 c18 -22 2 -46 -33 -47
-80 -3 -103 9 -85 43 12 22 100 26 118 4z m780 -5 c15 -28 -10 -44 -66 -43
-53 1 -68 11 -58 41 5 18 14 21 60 21 43 0 56 -4 64 -19z m-610 -245 c12 -14
5 -45 -10 -47 -40 -6 -117 -4 -131 3 -21 10 -24 44 -5 51 28 12 135 7 146 -7z
m472 -2 c9 -11 10 -20 2 -32 -9 -15 -33 -17 -197 -17 -198 0 -217 5 -195 47 9
16 27 18 193 18 155 0 186 -2 197 -16z m-732 -78 c16 -20 3 -46 -24 -46 -25 0
-39 32 -22 49 15 15 32 14 46 -3z m888 3 c15 -15 5 -46 -18 -52 -25 -7 -46 28
-28 49 14 17 31 18 46 3z"/>
</g>
</svg>
